<svg viewBox="0 0 48 48" xmlns="http://www.w3.org/2000/svg">
	<path
		d="M5.69231 48C4.70769 48 3.84615 47.64 3.10769 46.92C2.36923 46.2 2 45.36 2 44.4V7.2C2 6.24 2.36923 5.4 3.10769 4.68C3.84615 3.96 4.70769 3.6 5.69231 3.6H9.69231V0H13.6923V3.6H34.6154V0H38.6154V3.6H42.6154C43.6 3.6 44.4615 3.96 45.2 4.68C45.9385 5.4 46.3077 6.24 46.3077 7.2V44.4C46.3077 45.36 45.9385 46.2 45.2 46.92C44.4615 47.64 43.6 48 42.6154 48H5.69231ZM5.69231 44.4H42.6154V18.6H5.69231V44.4ZM5.69231 15H42.6154V7.2H5.69231V15ZM5.69231 15V7.2V15Z" />
</svg>
