<svg viewBox="0 0 48 48" xmlns="http://www.w3.org/2000/svg">
	<path
		d="M0 12C0 8.68594 2.68594 6 6 6H42C45.3094 6 48 8.68594 48 12V36C48 39.3094 45.3094 42 42 42H6C2.68594 42 0 39.3094 0 36V12ZM4.5 12V14.0719L20.6719 27.3469C22.6031 28.9406 25.3969 28.9406 27.3281 27.3469L43.5 14.0719V11.9156C43.5 11.175 42.825 10.4156 42 10.4156H6C5.17125 10.4156 4.5 11.175 4.5 11.9156V12ZM4.5 19.8937V36C4.5 36.825 5.17125 37.5 6 37.5H42C42.825 37.5 43.5 36.825 43.5 36V19.8937L30.1875 30.825C26.5875 33.7781 21.4125 33.7781 17.7281 30.825L4.5 19.8937Z" />
</svg>
