<svg xmlns="http://www.w3.org/2000/svg" x="0px" y="0px" viewBox="0 0 48 48">
	<path
		d="M23.8,4.3c6.4,0,7.1,0,9.6,0.1c2.3,0.1,3.6,0.5,4.4,0.8c1.1,0.4,1.9,1,2.7,1.8c0.8,0.8,1.4,1.6,1.8,2.8
	c0.3,0.8,0.7,2.1,0.8,4.5c0.1,2.5,0.1,3.3,0.1,9.7c0,6.4,0,7.2-0.1,9.7c-0.1,2.3-0.5,3.6-0.8,4.5c-0.4,1.1-1,1.9-1.8,2.8
	c-0.8,0.8-1.6,1.4-2.7,1.8c-0.8,0.3-2.1,0.7-4.4,0.8c-2.5,0.1-3.3,0.1-9.6,0.1c-6.4,0-7.1,0-9.6-0.1c-2.3-0.1-3.6-0.5-4.4-0.8
	c-1.1-0.4-1.9-1-2.7-1.8c-0.8-0.8-1.4-1.6-1.8-2.8c-0.3-0.8-0.7-2.1-0.8-4.5c-0.1-2.5-0.1-3.3-0.1-9.7c0-6.4,0-7.2,0.1-9.7
	c0.1-2.3,0.5-3.6,0.8-4.5c0.4-1.1,1-1.9,1.8-2.8c0.8-0.8,1.6-1.4,2.7-1.8c0.8-0.3,2.1-0.7,4.4-0.8C16.7,4.4,17.5,4.3,23.8,4.3z
	 M23.8,0c-6.5,0-7.3,0-9.8,0.1c-2.5,0.1-4.3,0.5-5.8,1.1C6.7,1.9,5.3,2.7,4,4C2.7,5.4,1.9,6.7,1.2,8.3c-0.6,1.5-1,3.3-1.1,5.8
	C0,16.7,0,17.5,0,24s0,7.3,0.1,9.9c0.1,2.6,0.5,4.3,1.1,5.8C1.9,41.3,2.7,42.6,4,44c1.3,1.3,2.7,2.2,4.2,2.8c1.5,0.6,3.3,1,5.8,1.1
	c2.5,0.1,3.4,0.1,9.8,0.1s7.3,0,9.8-0.1c2.5-0.1,4.3-0.5,5.8-1.1c1.6-0.6,2.9-1.4,4.2-2.8c1.3-1.3,2.1-2.7,2.7-4.2
	c0.6-1.5,1-3.3,1.1-5.8c0.1-2.6,0.1-3.4,0.1-9.9s0-7.3-0.1-9.9c-0.1-2.6-0.5-4.3-1.1-5.8C45.8,6.7,45,5.4,43.7,4
	c-1.3-1.3-2.7-2.2-4.2-2.8c-1.5-0.6-3.3-1-5.8-1.1C31.1,0,30.3,0,23.8,0z" />
	<path
		d="M23.8,11.7c-6.8,0-12.2,5.5-12.2,12.3s5.5,12.3,12.2,12.3S36.1,30.8,36.1,24S30.6,11.7,23.8,11.7z M23.8,32
	c-4.4,0-7.9-3.6-7.9-8s3.6-8,7.9-8s7.9,3.6,7.9,8S28.2,32,23.8,32z" />
	<path
		d="M39.4,11.2c0,1.6-1.3,2.9-2.9,2.9c-1.6,0-2.9-1.3-2.9-2.9c0-1.6,1.3-2.9,2.9-2.9C38.2,8.3,39.4,9.6,39.4,11.2z" />
</svg>
