<svg xmlns="http://www.w3.org/2000/svg" x="0px" y="0px" viewBox="0 0 48 48">
	<path
		d="M24,48c13.3,0,24-10.7,24-24S37.3,0,24,0S0,10.7,0,24S10.7,48,24,48z M15.9,15.5c0.7-2.1,2.7-3.5,4.9-3.5h5.5
	c3.3,0,5.9,2.7,5.9,5.9c0,2.1-1.1,4.1-3,5.1l-3,1.7c0,1.2-1,2.2-2.2,2.2c-1.2,0-2.2-1-2.2-2.2v-1.3c0-0.8,0.4-1.5,1.1-1.9l4.2-2.4
	c0.4-0.3,0.7-0.7,0.7-1.2c0-0.8-0.6-1.4-1.4-1.4h-5.5c-0.3,0-0.6,0.2-0.7,0.5l0,0.1c-0.4,1.2-1.7,1.8-2.9,1.4
	c-1.2-0.4-1.8-1.7-1.4-2.9L15.9,15.5L15.9,15.5z M27,33c0,1.7-1.3,3-3,3s-3-1.3-3-3s1.3-3,3-3S27,31.3,27,33z" />
</svg>
