<svg xmlns="http://www.w3.org/2000/svg" x="0px" y="0px" viewBox="0 0 48 48">
	<path
		d="M45.1,48L27.5,30.5c-1.3,1.2-2.9,2.1-4.7,2.7c-1.8,0.6-3.7,1-5.7,1c-4.8,0-8.9-1.7-12.2-5
	c-3.3-3.3-5-7.4-5-12.1S1.7,8.3,5,5s7.4-5,12.1-5c4.7,0,8.7,1.7,12,5s5,7.4,5,12.1c0,1.9-0.3,3.8-0.9,5.5s-1.6,3.4-2.8,5L48,45.1
	L45.1,48z M17.1,30.1c3.6,0,6.7-1.3,9.2-3.8c2.5-2.6,3.8-5.6,3.8-9.2s-1.3-6.7-3.8-9.2C23.8,5.3,20.7,4,17.1,4
	c-3.6,0-6.7,1.3-9.3,3.8C5.3,10.4,4,13.5,4,17.1s1.3,6.7,3.8,9.2C10.4,28.9,13.5,30.1,17.1,30.1z" />
</svg>
