<svg viewBox="0 0 48 48" xmlns="http://www.w3.org/2000/svg">
	<path
		d="M15.1003 43.6522C33.2091 43.6522 43.1166 28.3952 43.1166 15.1685C43.1166 14.7396 43.1072 14.3011 43.0884 13.8722C45.0158 12.4551 46.679 10.6999 48 8.68901C46.205 9.50094 44.2993 10.0312 42.3478 10.2617C44.4026 9.00949 45.9411 7.04234 46.6781 4.72489C44.7451 5.88959 42.6312 6.71118 40.4269 7.15445C38.9417 5.55002 36.978 4.4877 34.8394 4.13173C32.7008 3.77576 30.5064 4.14596 28.5955 5.18511C26.6846 6.22425 25.1636 7.87446 24.2677 9.8806C23.3718 11.8867 23.1509 14.1371 23.6391 16.2836C19.725 16.084 15.8959 15.0502 12.4 13.2495C8.90405 11.4487 5.81939 8.9211 3.34594 5.83054C2.0888 8.03416 1.70411 10.6418 2.27006 13.1234C2.83601 15.605 4.31013 17.7744 6.39281 19.1907C4.82926 19.1403 3.29995 18.7123 1.93125 17.9421V18.066C1.92985 20.3786 2.7162 22.6202 4.15662 24.41C5.59704 26.1997 7.60265 27.427 9.8325 27.8834C8.38411 28.2863 6.86396 28.345 5.38969 28.055C6.01891 30.0437 7.24315 31.7832 8.89154 33.0306C10.5399 34.2779 12.5302 34.9709 14.5847 35.0129C11.0968 37.7984 6.78835 39.3092 2.35313 39.302C1.56657 39.3008 0.780798 39.2518 0 39.1552C4.50571 42.0941 9.74706 43.655 15.1003 43.6522Z" />
</svg>
