<svg viewBox="0 0 48 48" xmlns="http://www.w3.org/2000/svg">
	<path
		d="M47.5219 13.6553C47.5219 13.6553 47.0531 10.1774 45.6094 8.65028C43.7812 6.6404 41.7375 6.63055 40.8 6.51232C34.0875 6 24.0094 6 24.0094 6H23.9906C23.9906 6 13.9125 6 7.2 6.51232C6.2625 6.63055 4.21875 6.6404 2.39062 8.65028C0.946875 10.1774 0.4875 13.6553 0.4875 13.6553C0.4875 13.6553 0 17.744 0 21.8229V25.6456C0 29.7244 0.478125 33.8131 0.478125 33.8131C0.478125 33.8131 0.946875 37.291 2.38125 38.8181C4.20937 40.828 6.60938 40.759 7.67813 40.9758C11.5219 41.36 24 41.4783 24 41.4783C24 41.4783 34.0875 41.4586 40.8 40.9561C41.7375 40.8379 43.7812 40.828 45.6094 38.8181C47.0531 37.291 47.5219 33.8131 47.5219 33.8131C47.5219 33.8131 48 29.7343 48 25.6456V21.8229C48 17.744 47.5219 13.6553 47.5219 13.6553ZM19.0406 30.286V16.1085L32.0062 23.2219L19.0406 30.286Z" />
</svg>
